<svg xmlns="http://www.w3.org/2000/svg" viewBox="0 0 153.92 39.63"><defs><style>.a{fill:#3a3a3a;}</style></defs><path class="a" d="M7.56,7.16h8.27l5,26.1H14.18l-.64-4.71H9.34L8.7,33.26H2.47ZM13,23.84l-1-8-.38-4.46c-.13,1.4-.38,2.93-.51,4.59l-1,8H13Z"/><path class="a" d="M28.18,15.31c-1,0-1.27.64-1.27,1.78v10.7c0,1.14.25,1.78,1.27,1.78s1.27-.64,1.27-1.78v-3.7h5.86v2.8c0,4.59-2.29,6.75-7.13,6.75s-7.13-2.29-7.13-6.75v-9c0-4.59,2.29-6.75,7.13-6.75s7.13,2.29,7.13,6.75v1.91H29.45V17.09C29.45,16,29.2,15.31,28.18,15.31Z"/><path class="a" d="M44.73,33.51a13.73,13.73,0,0,1-2.29.26c-4.46,0-5-1.91-5-6.37V16.07h-1.4v-4.2h1.4V7.29h5.61v4.58H44.6v4.2H43v12.1q0,1.14,1.53,1.14h.12Z"/><path class="a" d="M46.26,7.16H52v3.31H46.26Zm0,4.71H52V33.26H46.26Z"/><path class="a" d="M53.52,11.87h6.11l.76,8.53c0,.89.25,3.18.51,6.75.25-3.57.38-5.73.51-6.75l.89-8.53h5.86l-4,21.39H57.46Z"/><path class="a" d="M75.92,29.57c1,0,1.27-.64,1.27-1.78V25.24h5.86V27c0,4.58-2.29,6.75-7.13,6.75S68.79,31.48,68.79,27V17.86c0-4.59,2.29-6.75,7.13-6.75s7.13,2.29,7.13,6.75v5.47h-8.4v4.33C74.65,28.93,75,29.57,75.92,29.57ZM74.65,19.38h2.54V17.09c0-1.14-.25-1.78-1.27-1.78s-1.27.64-1.27,1.78Z"/><path class="a" d="M90.43,25.24v1.27c0,1.78.64,2.55,2,2.55a2,2,0,0,0,2-1.78V27a3.84,3.84,0,0,0-2.17-3.18c-1.91-1.4-3.81-2.8-5.6-4.33a7.5,7.5,0,0,1-2.16-5.35c.13-4.45,3-7,8.15-7s7.63,2.17,7.63,6.62v2.29H94.51V14.16c0-1.65-.64-2.42-1.91-2.42a1.72,1.72,0,0,0-1.78,1.66v.25c0,1.53,1.52,2.68,4.2,4.71,2.29,1.79,4.07,3.06,4.84,4.46a8.37,8.37,0,0,1,1,3.95c0,4.45-3.05,7-8.4,7s-8-2.55-8-7.39V25.24Z"/><path class="a" d="M110.29,33.51a13.61,13.61,0,0,1-2.29.26c-4.45,0-5-1.91-5-6.37V16.07h-1.4v-4.2H103V7.29h5.6v4.58h1.53v4.2h-1.66v12.1q0,1.14,1.53,1.14h.13Z"/><path class="a" d="M115.77,33.77c-2.8,0-4.46-2-4.46-5.22V26.77a6,6,0,0,1,4.08-6c2.67-1.27,4.45-1.78,4.45-3.56v-.89a1.3,1.3,0,0,0-1.27-1.4c-.76,0-1.4.76-1.4,2.16v1.4h-5.35v-1.4c0-3.69,2.55-6,6.88-6,5.09,0,6.87,2.16,6.87,6.49V33.39h-5.35l-.12-1.53A6.23,6.23,0,0,1,115.77,33.77ZM117,26v2.17c0,1.27,0,2,1,2s1.66-.89,1.66-2.67V22.44c-1.91,1.14-2.55,1.78-2.68,3.56Z"/><path class="a" d="M135.25,33.51a13.85,13.85,0,0,1-2.29.26c-4.46,0-5-1.91-5-6.37V16.07h-1.4v-4.2H128V7.29h5.6v4.58h1.53v4.2h-1.53v12.1q0,1.14,1.53,1.14h.13Z"/><path class="a" d="M143.27,29.57c1,0,1.27-.64,1.27-1.78V25.24h5.86V27c0,4.58-2.29,6.75-7.13,6.75s-7.13-2.29-7.13-6.75V17.86c0-4.59,2.29-6.75,7.13-6.75s7.13,2.29,7.13,6.75v5.47H142v4.33C142,28.93,142.25,29.57,143.27,29.57ZM142,19.38h2.55V17.09c0-1.14-.25-1.78-1.27-1.78S142,16,142,17.09Z"/></svg>