<?xml version="1.0" encoding="utf-8"?>
<!-- Generator: Adobe Illustrator 24.3.0, SVG Export Plug-In . SVG Version: 6.00 Build 0)  -->
<svg version="1.1" id="Layer_1" xmlns="http://www.w3.org/2000/svg" xmlns:xlink="http://www.w3.org/1999/xlink" x="0px" y="0px"
	 viewBox="0 0 16 16" style="enable-background:new 0 0 16 16;" xml:space="preserve">
<style type="text/css">
	.st0{fill:#3569C4;}
</style>
<path class="st0" d="M8,0C3.6,0,0,3.6,0,8s3.6,8,8,8s8-3.6,8-8S12.4,0,8,0z M12.6,6.2L7.7,11l-0.8,0.8c-0.2,0.2-0.4,0.2-0.6,0
	c0,0,0,0,0,0L3.6,9c-0.2-0.2-0.2-0.4,0-0.6c0,0,0,0,0,0l0.8-0.8c0.2-0.2,0.4-0.2,0.6,0c0,0,0,0,0,0l1.6,1.7l4.5-4.5
	c0.2-0.2,0.4-0.2,0.6,0l0.8,0.8C12.7,5.7,12.7,6,12.6,6.2C12.6,6.1,12.6,6.1,12.6,6.2z"/>
</svg>
