<svg xmlns="http://www.w3.org/2000/svg" viewBox="0 0 16.85 16.85"><defs><style>.cls-1{fill:#ffffff;}</style></defs><title>clipboard-icon</title><g id="Layer_2" data-name="Layer 2"><g id="Layer_1-2" data-name="Layer 1"><path class="cls-1" d="M7.22,15.65h8.43v-6H11.74a.88.88,0,0,1-.64-.26.87.87,0,0,1-.27-.64V4.81H7.22ZM9.63,2.11V1.5a.31.31,0,0,0-.3-.3H2.71a.31.31,0,0,0-.3.3v.61a.31.31,0,0,0,.3.3H9.33a.31.31,0,0,0,.3-.3ZM12,8.43h2.81L12,5.61Zm4.81,1.2V16a.89.89,0,0,1-.9.9h-9A.89.89,0,0,1,6,16V14.44H.9a.86.86,0,0,1-.64-.26A.88.88,0,0,1,0,13.54V.9A.89.89,0,0,1,.9,0H11.13a.88.88,0,0,1,.64.26A.87.87,0,0,1,12,.9V4a2.34,2.34,0,0,1,.34.26l3.83,3.84a2,2,0,0,1,.45.71A2.1,2.1,0,0,1,16.85,9.63Z"/></g></g></svg>