<?xml version="1.0" encoding="utf-8"?>
<!-- Generator: Adobe Illustrator 24.3.0, SVG Export Plug-In . SVG Version: 6.00 Build 0)  -->
<svg version="1.1" id="Layer_1" xmlns="http://www.w3.org/2000/svg" xmlns:xlink="http://www.w3.org/1999/xlink" x="0px" y="0px"
	 viewBox="0 0 16.9 16.9" style="enable-background:new 0 0 16.9 16.9;" xml:space="preserve">
<style type="text/css">
	.st0{fill:#3569C4;}
</style>
<g id="Layer_2_1_">
	<g id="Layer_1-2">
		<path class="st0" d="M7.5,14.3h6.8V9.4h-3.2c-0.2,0-0.4-0.1-0.5-0.2c-0.1-0.1-0.2-0.3-0.2-0.5V5.5H7.5V14.3z M9.4,3.3V2.8
			c0-0.1-0.1-0.2-0.2-0.2H3.8c-0.1,0-0.2,0.1-0.2,0.2v0.5c0,0.1,0.1,0.2,0.2,0.2h5.3C9.3,3.6,9.4,3.5,9.4,3.3z M11.3,8.4h2.3
			l-2.3-2.3V8.4z M15.2,9.4v5.1c0,0.4-0.3,0.7-0.7,0.7c0,0,0,0,0,0H7.2c-0.4,0-0.7-0.3-0.7-0.7c0,0,0,0,0,0v-1.3H2.4
			c-0.2,0-0.4-0.1-0.5-0.2c-0.1-0.1-0.2-0.3-0.2-0.5V2.4c0-0.4,0.3-0.7,0.7-0.7c0,0,0,0,0,0h8.3c0.2,0,0.4,0.1,0.5,0.2
			c0.1,0.1,0.2,0.3,0.2,0.5v2.5c0.1,0.1,0.2,0.1,0.3,0.2l3.1,3.1C14.8,8.3,15,8.5,15,8.7C15.1,8.9,15.2,9.2,15.2,9.4L15.2,9.4z"/>
	</g>
</g>
</svg>
