<svg xmlns="http://www.w3.org/2000/svg" xmlns:xlink="http://www.w3.org/1999/xlink" viewBox="0 0 155 140"><defs><style>.a{fill:#a0a0a0;}.b{fill:#ddd;}.c{fill:url(#a);}.d{fill:#c6c6c6;}</style><linearGradient id="a" x1="-2.59" y1="12.93" x2="154.68" y2="108.23" gradientUnits="userSpaceOnUse"><stop offset="0" stop-color="#003f84"/><stop offset="0.29"/><stop offset="0.77"/><stop offset="1" stop-color="#003f84"/></linearGradient></defs><path class="a" d="M123.36,126.84H31.64a3,3,0,0,1-2.9-2.52l-.57-3.62h98.66l-.57,3.62A3,3,0,0,1,123.36,126.84Z"/><path class="b" d="M120.56,107.15H34.44a3,3,0,0,0-2.74,2.18l-3.36,9.27c-.88,2.4.58,5.1,2.74,5.1h92.84c2.16,0,3.62-2.7,2.74-5.1l-3.36-9.27A3,3,0,0,0,120.56,107.15Z"/><rect class="a" x="64.69" y="96.75" width="25.62" height="16.36" rx="4.44"/><rect class="c" x="6.2" y="22.67" width="142.61" height="77.59" rx="5.42"/><path class="d" d="M100.55,111.49a2.11,2.11,0,0,1-.47,1.52,5.54,5.54,0,0,1-1.17,1.15,14.19,14.19,0,0,1-2.81,1.59A33.27,33.27,0,0,1,90,117.62a60.75,60.75,0,0,1-12.53,1.27A60.06,60.06,0,0,1,65,117.63a32.87,32.87,0,0,1-6.08-1.88,14.89,14.89,0,0,1-2.8-1.58A6.43,6.43,0,0,1,54.91,113a2.18,2.18,0,0,1-.46-1.53,2,2,0,0,0,.8,1.22,5.28,5.28,0,0,0,1.26.74,16.42,16.42,0,0,0,2.86.91,51.55,51.55,0,0,0,6,1c4,.42,8.1.55,12.16.57,2,0,4.06,0,6.09-.13s4-.25,6.07-.44a50,50,0,0,0,6-1,16.32,16.32,0,0,0,2.85-.91,5.28,5.28,0,0,0,1.26-.74A2,2,0,0,0,100.55,111.49Z"/></svg>