<svg xmlns="http://www.w3.org/2000/svg" xmlns:xlink="http://www.w3.org/1999/xlink" viewBox="0 0 117.06 140"><defs><style>.a{fill:#c6c6c6;}.b{fill:#a0a0a0;}.c{fill:#ddd;}.d{fill:url(#a);}</style><linearGradient id="a" x1="13.57" y1="33.18" x2="105.49" y2="90.76" gradientUnits="userSpaceOnUse"><stop offset="0" stop-color="#003f84"/><stop offset="0.3"/><stop offset="0.77"/><stop offset="1" stop-color="#003f84"/></linearGradient></defs><rect class="a" x="13.51" y="32.97" width="90.03" height="56.75" rx="3"/><path class="b" d="M105.34,124.12H11.72a3,3,0,0,1-3-2.52L8.18,118h100.7l-.58,3.62A3,3,0,0,1,105.34,124.12Z"/><path class="c" d="M101.07,89.72H16a3,3,0,0,0-3,2.43l-4.84,25a3,3,0,0,0,3,3.57h94.76a3,3,0,0,0,2.94-3.57l-4.84-25A3,3,0,0,0,101.07,89.72Z"/><path class="a" d="M99.12,93.12H17.92a1.86,1.86,0,0,0-1.83,1.54l-3.5,20.25a1.86,1.86,0,0,0,1.83,2.17h88.22a1.85,1.85,0,0,0,1.82-2.17l-3.52-20.26A1.85,1.85,0,0,0,99.12,93.12Z"/><rect class="d" x="16.56" y="36.6" width="83.94" height="49.49" rx="3"/></svg>