<svg xmlns="http://www.w3.org/2000/svg" xmlns:xlink="http://www.w3.org/1999/xlink" viewBox="0 0 105 140"><defs><style>.a{fill:#a0a0a0;}.b{fill:#ddd;}.c{fill:#bcbcbc;}.d{fill:#2b2b2b;}.e{fill:#f7f7f7;}.f{fill:#939393;}.g{fill:url(#a);}.h{fill:#60bf3e;}</style><linearGradient id="a" x1="12.03" y1="30.81" x2="89.05" y2="86.42" gradientUnits="userSpaceOnUse"><stop offset="0" stop-color="#003f84"/><stop offset="0.38"/><stop offset="0.73"/><stop offset="1" stop-color="#003f84"/></linearGradient></defs><path class="a" d="M81.18,123.12H23.82a4.88,4.88,0,0,1-4.77-3.86l-1.18-5.5H87.13L86,119.26A4.88,4.88,0,0,1,81.18,123.12Z"/><rect class="b" x="13.14" y="29.87" width="78.72" height="83.9" rx="4"/><rect class="c" x="18.28" y="35.3" width="68.45" height="49.58" rx="3"/><rect class="d" x="51.57" y="104.35" width="35.16" height="3.98" rx="1.99"/><rect class="a" x="18" y="88.93" width="68.73" height="3.98" rx="1.99"/><rect class="a" x="18" y="95.89" width="68.73" height="3.98" rx="1.99"/><path class="e" d="M81,79.24H24.09l-4.84,4.84a3,3,0,0,0,2,.8H83.72a3,3,0,0,0,2.07-.83Z"/><path class="f" d="M24.06,40.94H80.94l4.85-4.84a3,3,0,0,0-2-.8H21.31a3,3,0,0,0-2.06.83Z"/><path class="g" d="M24.82,81.16H80.63a2,2,0,0,0,2-2V41a2,2,0,0,0-2-2H24.82a2.26,2.26,0,0,0-2.45,2V79.16A2.26,2.26,0,0,0,24.82,81.16Z"/><circle class="h" cx="19.99" cy="106.34" r="1.99"/></svg>