<svg xmlns="http://www.w3.org/2000/svg" viewBox="0 0 80.17 107.46"><defs><style>.a{fill:#60bf3e;}.b{fill:#bababa;}.c{fill:#db3444;}.d{fill:#fff;}</style></defs><path class="a" d="M18.16,27.43a6.62,6.62,0,1,0,6.61,6.62A6.62,6.62,0,0,0,18.16,27.43Zm3.76,5.09-4,4-.67.67a.35.35,0,0,1-.5,0L14.5,34.9a.34.34,0,0,1,0-.49l.67-.68a.35.35,0,0,1,.5,0L17,35.08l3.73-3.73a.35.35,0,0,1,.5,0l.67.67A.35.35,0,0,1,21.92,32.52Z"/><rect class="b" x="30.46" y="27.43" width="38.12" height="3.81"/><rect class="b" x="30.46" y="34.05" width="38.12" height="3.81"/><rect class="b" x="30.46" y="40.66" width="19.06" height="3.81"/><rect class="b" x="30.46" y="55.04" width="38.12" height="3.81"/><rect class="b" x="30.46" y="61.65" width="38.12" height="3.81"/><rect class="b" x="30.46" y="68.27" width="19.06" height="3.81"/><circle class="c" cx="18.16" cy="61.65" r="6.61"/><rect class="d" x="14.52" y="60.83" width="7.28" height="1.65" rx="0.35" transform="translate(-38.28 30.9) rotate(-45)"/><rect class="d" x="17.33" y="58.01" width="1.65" height="7.28" rx="0.35" transform="translate(-38.28 30.9) rotate(-45)"/><rect class="b" x="30.46" y="80.64" width="38.12" height="3.81"/><rect class="b" x="30.46" y="87.26" width="38.12" height="3.81"/><rect class="b" x="30.46" y="93.87" width="19.06" height="3.81"/><path class="a" d="M18.16,80.64a6.62,6.62,0,1,0,6.61,6.62A6.61,6.61,0,0,0,18.16,80.64Zm3.76,5.09-4,4-.67.67a.35.35,0,0,1-.5,0L14.5,88.11a.35.35,0,0,1,0-.5l.67-.67a.35.35,0,0,1,.5,0L17,88.29l3.73-3.73a.35.35,0,0,1,.5,0l.67.67A.35.35,0,0,1,21.92,85.73Z"/><rect class="b" x="11.4" y="8.66" width="57.18" height="7.75"/></svg>