<svg xmlns="http://www.w3.org/2000/svg" viewBox="0 0 80.17 107.46"><defs><style>.a{fill:#60bf3e;}.b{fill:#bababa;}.c{fill:#db3444;}.d{fill:#fff;}</style></defs><path class="a" d="M18.26,27.43a6.62,6.62,0,1,0,6.62,6.62A6.62,6.62,0,0,0,18.26,27.43ZM22,32.52l-4,4-.67.67a.35.35,0,0,1-.5,0L14.6,34.9a.34.34,0,0,1,0-.49l.67-.68a.35.35,0,0,1,.5,0l1.35,1.35,3.74-3.73a.34.34,0,0,1,.49,0L22,32A.35.35,0,0,1,22,32.52Z"/><rect class="b" x="30.56" y="27.43" width="38.12" height="3.81"/><rect class="b" x="30.56" y="34.05" width="38.12" height="3.81"/><rect class="b" x="30.56" y="40.66" width="19.06" height="3.81"/><rect class="b" x="30.56" y="55.04" width="38.12" height="3.81"/><rect class="b" x="30.56" y="61.65" width="38.12" height="3.81"/><rect class="b" x="30.56" y="68.27" width="19.06" height="3.81"/><circle class="c" cx="18.26" cy="61.65" r="6.61"/><rect class="d" x="14.62" y="60.83" width="7.28" height="1.65" rx="0.35" transform="translate(-38.25 30.97) rotate(-45)"/><rect class="d" x="17.44" y="58.01" width="1.65" height="7.28" rx="0.35" transform="translate(-38.25 30.97) rotate(-45)"/><rect class="b" x="30.56" y="80.64" width="38.12" height="3.81"/><rect class="b" x="30.56" y="87.26" width="38.12" height="3.81"/><rect class="b" x="30.56" y="93.87" width="19.06" height="3.81"/><path class="a" d="M18.26,80.64a6.62,6.62,0,1,0,6.62,6.62A6.61,6.61,0,0,0,18.26,80.64ZM22,85.73l-4,4-.67.67a.35.35,0,0,1-.5,0L14.6,88.11a.35.35,0,0,1,0-.5l.67-.67a.35.35,0,0,1,.5,0l1.35,1.35,3.74-3.73a.34.34,0,0,1,.49,0l.67.67A.35.35,0,0,1,22,85.73Z"/><rect class="b" x="11.5" y="8.66" width="57.18" height="7.75" rx="2"/></svg>