<svg xmlns="http://www.w3.org/2000/svg" viewBox="0 0 80.17 107.46"><defs><style>.a{fill:#60bf3e;}.b{fill:#bababa;}</style></defs><path class="a" d="M18.26,27.43a6.62,6.62,0,1,0,6.62,6.62A6.62,6.62,0,0,0,18.26,27.43ZM22,32.52l-4,4-.67.67a.35.35,0,0,1-.5,0L14.6,34.9a.34.34,0,0,1,0-.49l.67-.68a.35.35,0,0,1,.5,0l1.35,1.35,3.74-3.73a.34.34,0,0,1,.49,0L22,32A.35.35,0,0,1,22,32.52Z"/><rect class="b" x="30.56" y="27.43" width="38.12" height="3.81"/><rect class="b" x="30.56" y="34.05" width="38.12" height="3.81"/><rect class="b" x="30.56" y="40.66" width="19.06" height="3.81"/><rect class="b" x="30.56" y="55.04" width="38.12" height="3.81"/><rect class="b" x="30.56" y="61.65" width="38.12" height="3.81"/><rect class="b" x="30.56" y="68.27" width="19.06" height="3.81"/><rect class="b" x="30.56" y="80.64" width="38.12" height="3.81"/><rect class="b" x="30.56" y="87.26" width="38.12" height="3.81"/><rect class="b" x="30.56" y="93.87" width="19.06" height="3.81"/><path class="a" d="M18.26,80.64a6.62,6.62,0,1,0,6.62,6.62A6.61,6.61,0,0,0,18.26,80.64ZM22,85.73l-4,4-.67.67a.35.35,0,0,1-.5,0L14.6,88.11a.35.35,0,0,1,0-.5l.67-.67a.35.35,0,0,1,.5,0l1.35,1.35,3.74-3.73a.34.34,0,0,1,.49,0l.67.67A.35.35,0,0,1,22,85.73Z"/><path class="a" d="M18.26,55a6.62,6.62,0,1,0,6.62,6.61A6.61,6.61,0,0,0,18.26,55ZM22,60.12l-4,4-.67.68a.35.35,0,0,1-.5,0L14.6,62.5a.34.34,0,0,1,0-.49l.67-.67a.35.35,0,0,1,.5,0l1.35,1.35L20.86,59a.36.36,0,0,1,.49,0l.67.68A.34.34,0,0,1,22,60.12Z"/><rect class="b" x="11.5" y="8.66" width="57.18" height="7.75" rx="2"/></svg>