<svg xmlns="http://www.w3.org/2000/svg" viewBox="0 0 200 200"><defs><style>.a{fill:#eee;}.b{fill:#9b7b56;}.c{fill:#7f6145;}.d{fill:#c69d6b;}</style></defs><path class="a" d="M96.11,170.22,18.9,133.43a7.75,7.75,0,0,1,.17-14.07L100,83.2l80.93,36.16a7.75,7.75,0,0,1,.17,14.07l-77.21,36.79A9,9,0,0,1,96.11,170.22Z"/><polygon class="b" points="100 163.8 23.62 127.41 23.62 63.03 100 99.42 100 163.8"/><polygon class="c" points="176.38 127.41 100 163.8 100 99.42 176.38 63.03 176.38 127.41"/><polygon class="d" points="100 99.42 23.62 63.03 100 28.9 176.38 63.03 100 99.42"/></svg>