<svg xmlns="http://www.w3.org/2000/svg" viewBox="0 0 200 200"><defs><style>.a{fill:#eee;}.b{fill:#9b7b56;}.c{fill:#7f6145;}.d{fill:#c69d6b;}.e{fill:#fff;}</style></defs><path class="a" d="M94,169.23,18.9,133.43a7.75,7.75,0,0,1,.17-14.07L100,83.2l80.93,36.16a7.75,7.75,0,0,1,.17,14.07L106,169.23A13.92,13.92,0,0,1,94,169.23Z"/><path class="b" d="M100,163.8,29.32,130.12a10,10,0,0,1-5.7-9V63L100,99.42Z"/><path class="c" d="M170.68,130.12,100,163.8V99.42L176.38,63v58.06A10,10,0,0,1,170.68,130.12Z"/><polygon class="d" points="100 99.42 23.62 63.03 100 28.9 176.38 63.03 100 99.42"/><path class="e" d="M16.58,24.58v96l7-3.24V71.54a13.13,13.13,0,0,1,7.77-12L90.54,33.12a23.19,23.19,0,0,1,18.92,0l58.63,26.2a14,14,0,0,1,8.29,12.78v45.22l5.93,2.74V24.58Z"/><path class="a" d="M117.13,155.65l-11.45,5.45a13.22,13.22,0,0,1-11.36,0l-11.45-5.45,4,9.48h26.26Z"/></svg>