<svg xmlns="http://www.w3.org/2000/svg" viewBox="0 0 399.72 173.14"><defs><style>.a{fill:#ddd;}.b{fill:#c6c6c6;}.c{fill:#2b2b2b;}.d{fill:#e8e8e8;}</style></defs><path class="a" d="M247.41,140.42H152.3a3.4,3.4,0,0,1-3.08-4.84L154,125.36a3.43,3.43,0,0,1,3.09-2h85.56a3.41,3.41,0,0,1,3.08,2l4.77,10.22A3.4,3.4,0,0,1,247.41,140.42Z"/><path class="b" d="M249.4,137.26c0,1.23-.58,2.31-3,2.31h-93c-2.44,0-3-.81-3-2.31"/><rect class="b" x="187.05" y="113.05" width="25.62" height="16.36" rx="4.44"/><rect class="c" x="128.55" y="38.97" width="142.61" height="77.59" rx="5.42"/><path class="b" d="M222.82,127.79a2.18,2.18,0,0,1-.47,1.53,6.31,6.31,0,0,1-1.17,1.14,14.78,14.78,0,0,1-2.81,1.59,32.09,32.09,0,0,1-6.08,1.87,62.69,62.69,0,0,1-25.06,0,32.77,32.77,0,0,1-6.07-1.88,14.66,14.66,0,0,1-2.81-1.58,6.37,6.37,0,0,1-1.17-1.15,2.18,2.18,0,0,1-.47-1.53,2.07,2.07,0,0,0,.8,1.22,5.35,5.35,0,0,0,1.27.74,16.05,16.05,0,0,0,2.85.91,49.34,49.34,0,0,0,6,1,120.08,120.08,0,0,0,12.15.57c2,0,4.07,0,6.09-.13s4.05-.25,6.07-.44a48,48,0,0,0,6-1,17.18,17.18,0,0,0,2.85-.9A6,6,0,0,0,222,129,2.07,2.07,0,0,0,222.82,127.79Z"/><polygon class="b" points="111.79 131.49 72.88 136.82 72.88 43.57 111.79 48.9 111.79 131.49"/><rect class="c" x="47.89" y="118.05" width="20.13" height="3.98"/><polygon class="b" points="72.88 136.82 22.89 130.28 23.14 121.25 72.88 126.26 72.88 136.82"/><polygon class="a" points="17.38 121.31 72.88 127.02 72.88 43.57 19.53 50.8 17.38 121.31"/><polygon class="c" points="25.51 93.3 67.33 93.61 67.47 49.4 26.55 54.34 25.51 93.3"/><polygon class="b" points="22.22 96.47 25.43 96.53 26.55 54.34 23.4 54.72 22.22 96.47"/><polygon class="b" points="22.02 103.43 67.29 105.31 67.3 101.32 22.12 99.97 22.02 103.43"/><polygon class="b" points="21.85 109.5 67.27 112.31 67.28 108.29 21.95 106.02 21.85 109.5"/><polygon class="d" points="22.22 96.47 67.32 97.3 67.33 93.61 25.51 93.3 22.22 96.47"/><polygon class="b" points="23.4 54.72 67.47 49.4 67.45 52.9 26.46 57.44 23.4 54.72"/><polygon class="b" points="287.93 131.49 326.83 136.82 326.83 43.57 287.93 48.9 287.93 131.49"/><rect class="c" x="331.69" y="118.05" width="20.13" height="3.98"/><polygon class="b" points="326.83 136.82 376.83 130.28 376.58 121.25 326.83 126.26 326.83 136.82"/><polygon class="a" points="382.34 121.31 326.83 127.02 326.83 43.57 380.18 50.8 382.34 121.31"/><polygon class="c" points="374.2 93.3 332.39 93.61 332.25 49.4 373.17 54.34 374.2 93.3"/><polygon class="b" points="377.5 96.47 374.29 96.53 373.17 54.34 376.31 54.72 377.5 96.47"/><polygon class="b" points="377.69 103.43 332.43 105.31 332.41 101.32 377.6 99.97 377.69 103.43"/><polygon class="b" points="377.86 109.5 332.45 112.31 332.43 108.29 377.77 106.02 377.86 109.5"/><polygon class="d" points="377.5 96.47 332.4 97.3 332.39 93.61 374.2 93.3 377.5 96.47"/><polygon class="b" points="376.31 54.72 332.25 49.4 332.26 52.9 373.25 57.44 376.31 54.72"/></svg>