<svg xmlns="http://www.w3.org/2000/svg" xmlns:xlink="http://www.w3.org/1999/xlink" viewBox="0 0 430 135"><defs><style>.a{fill:#c6c6c6;}.b{fill:#a0a0a0;}.c{fill:#ddd;}.d{fill:url(#a);}.e{fill:url(#b);}.f{fill:#bcbcbc;}.g{fill:#2b2b2b;}.h{fill:#f7f7f7;}.i{fill:#939393;}.j{fill:url(#c);}.k{fill:#60bf3e;}</style><linearGradient id="a" x1="313.79" y1="25.92" x2="405.71" y2="83.51" gradientUnits="userSpaceOnUse"><stop offset="0" stop-color="#003f84"/><stop offset="0.3"/><stop offset="0.77"/><stop offset="1" stop-color="#003f84"/></linearGradient><linearGradient id="b" x1="126.63" y1="5.67" x2="283.9" y2="100.98" gradientUnits="userSpaceOnUse"><stop offset="0" stop-color="#003f84"/><stop offset="0.29"/><stop offset="0.77"/><stop offset="1" stop-color="#003f84"/></linearGradient><linearGradient id="c" x1="19.77" y1="23.56" x2="96.78" y2="79.17" gradientUnits="userSpaceOnUse"><stop offset="0" stop-color="#003f84"/><stop offset="0.38"/><stop offset="0.73"/><stop offset="1" stop-color="#003f84"/></linearGradient></defs><rect class="a" x="313.73" y="25.71" width="90.03" height="56.75" rx="3"/><path class="b" d="M405.56,116.87H311.94a3,3,0,0,1-3-2.53l-.58-3.62H409.1l-.58,3.62A3,3,0,0,1,405.56,116.87Z"/><path class="c" d="M401.29,82.46H316.21a3,3,0,0,0-2.95,2.43l-4.83,25a3,3,0,0,0,2.94,3.57h94.76a3,3,0,0,0,2.94-3.57l-4.84-25A3,3,0,0,0,401.29,82.46Z"/><path class="a" d="M399.34,85.86h-81.2a1.86,1.86,0,0,0-1.83,1.54l-3.5,20.26a1.86,1.86,0,0,0,1.83,2.17h88.22a1.85,1.85,0,0,0,1.82-2.18L401.17,87.4A1.86,1.86,0,0,0,399.34,85.86Z"/><rect class="d" x="316.78" y="29.34" width="83.94" height="49.49" rx="3"/><path class="b" d="M252.58,119.59H160.86a3,3,0,0,1-2.9-2.53l-.57-3.62h98.66l-.57,3.62A3,3,0,0,1,252.58,119.59Z"/><path class="c" d="M249.78,99.9H163.66a3,3,0,0,0-2.74,2.17l-3.36,9.27c-.87,2.41.58,5.11,2.74,5.11h92.84c2.16,0,3.62-2.7,2.74-5.11l-3.36-9.27A3,3,0,0,0,249.78,99.9Z"/><rect class="b" x="193.91" y="89.5" width="25.62" height="16.36" rx="4.44"/><rect class="e" x="135.42" y="15.41" width="142.61" height="77.59" rx="5.42"/><path class="a" d="M229.77,104.24a2.15,2.15,0,0,1-.46,1.52,6.12,6.12,0,0,1-1.18,1.15,14.89,14.89,0,0,1-2.8,1.58,32.87,32.87,0,0,1-6.08,1.88,60.68,60.68,0,0,1-12.53,1.27,59.41,59.41,0,0,1-12.53-1.27,32.51,32.51,0,0,1-6.07-1.87,14.19,14.19,0,0,1-2.81-1.59,5.54,5.54,0,0,1-1.17-1.15,2.15,2.15,0,0,1-.47-1.52,2,2,0,0,0,.8,1.21,5.52,5.52,0,0,0,1.26.75,15.59,15.59,0,0,0,2.86.9,47.59,47.59,0,0,0,6,1,120.28,120.28,0,0,0,12.16.58c2,0,4.06,0,6.09-.13s4.05-.25,6.07-.44a50,50,0,0,0,6-1,16.32,16.32,0,0,0,2.85-.91,5.64,5.64,0,0,0,1.26-.74A2,2,0,0,0,229.77,104.24Z"/><path class="b" d="M88.92,115.87H31.55A4.88,4.88,0,0,1,26.78,112l-1.17-5.5H94.86L93.69,112A4.88,4.88,0,0,1,88.92,115.87Z"/><rect class="c" x="20.87" y="22.62" width="78.72" height="83.9" rx="4"/><rect class="f" x="26.01" y="28.05" width="68.45" height="49.58" rx="3"/><rect class="g" x="59.3" y="97.09" width="35.16" height="3.98" rx="1.99"/><rect class="b" x="25.73" y="81.67" width="68.73" height="3.98" rx="1.99"/><rect class="b" x="25.73" y="88.63" width="68.73" height="3.98" rx="1.99"/><path class="h" d="M88.71,72H31.83L27,76.83a3,3,0,0,0,2,.8H91.46a3,3,0,0,0,2.06-.83Z"/><path class="i" d="M31.8,33.69H88.68l4.84-4.84a2.93,2.93,0,0,0-2-.8H29.05a3,3,0,0,0-2.07.83Z"/><path class="j" d="M32.55,73.9H88.36a2,2,0,0,0,2-2V33.77a2,2,0,0,0-2-2H32.55a2.25,2.25,0,0,0-2.44,2V71.9A2.25,2.25,0,0,0,32.55,73.9Z"/><circle class="k" cx="27.73" cy="99.09" r="1.99"/></svg>